<svg width="132" height="30" viewBox="0 0 132 30" fill="none" xmlns="http://www.w3.org/2000/svg">
<path fill-rule="evenodd" clip-rule="evenodd" d="M131 1H57V29H131V1ZM56 0V30H132V0H56Z" fill="#FF6C00"/>
<path fill-rule="evenodd" clip-rule="evenodd" d="M42.5168 1H1V29H42.4968L53.2398 14.5203L42.5168 1ZM43 0H0V30H43L54.5 14.5L43 0Z" fill="white"/>
<path d="M16.42 21.24C14.9 21.24 13.58 20.96 12.46 20.4C11.34 19.8267 10.48 19.0534 9.87998 18.08C9.27998 17.1067 8.97998 16.0267 8.97998 14.84C8.97998 13.5734 9.31331 12.44 9.97998 11.44C10.66 10.44 11.5933 9.6667 12.78 9.12003C13.9666 8.56003 15.3 8.28003 16.78 8.28003C17.42 8.28003 18.06 8.33336 18.7 8.44003C19.34 8.53336 19.8533 8.66003 20.24 8.82003C20.3866 8.87336 20.4666 8.92003 20.48 8.96003C20.5066 8.9867 20.5266 9.09336 20.54 9.28003L20.8 12.06C20.8 12.1 20.76 12.1267 20.68 12.14C20.6133 12.1534 20.5733 12.1334 20.56 12.08C20.3866 11.64 20.1066 11.16 19.72 10.64C19.3333 10.12 18.8266 9.6667 18.2 9.28003C17.5733 8.89336 16.8466 8.70003 16.02 8.70003C15.1666 8.70003 14.3866 8.93336 13.68 9.40003C12.9733 9.8667 12.4133 10.5334 12 11.4C11.6 12.2667 11.4 13.2734 11.4 14.42C11.4 15.6734 11.6333 16.7934 12.1 17.78C12.58 18.7667 13.24 19.5334 14.08 20.08C14.92 20.6267 15.8666 20.9 16.92 20.9C17.4666 20.9 17.8866 20.84 18.18 20.72C18.4733 20.6 18.6866 20.3667 18.82 20.02C18.9533 19.6734 19.02 19.16 19.02 18.48C19.02 17.7867 18.98 17.3067 18.9 17.04C18.82 16.76 18.6466 16.5734 18.38 16.48C18.1266 16.3867 17.6733 16.34 17.02 16.34C16.94 16.34 16.9 16.2867 16.9 16.18C16.9 16.14 16.9066 16.1067 16.92 16.08C16.9466 16.04 16.9733 16.02 17 16.02C18.1333 16.0867 19.0533 16.12 19.76 16.12C20.44 16.12 21.1466 16.1 21.88 16.06C21.9333 16.06 21.96 16.1067 21.96 16.2C21.9733 16.2934 21.9466 16.34 21.88 16.34C21.64 16.3267 21.4666 16.3734 21.36 16.48C21.2666 16.5734 21.2066 16.7734 21.18 17.08C21.1533 17.3867 21.14 17.92 21.14 18.68C21.14 19.28 21.16 19.7067 21.2 19.96C21.2533 20.2134 21.28 20.3734 21.28 20.44C21.28 20.52 21.2666 20.5734 21.24 20.6C21.2133 20.6267 21.1533 20.6534 21.06 20.68C19.34 21.0534 17.7933 21.24 16.42 21.24Z" fill="#FF6C00"/>
<path d="M32.9489 21.24C31.7089 21.24 30.6022 20.9534 29.6289 20.38C28.6689 19.7934 27.9222 19.0067 27.3889 18.02C26.8689 17.02 26.6089 15.9334 26.6089 14.76C26.6089 13.3867 26.9556 12.2134 27.6489 11.24C28.3422 10.2534 29.2289 9.51336 30.3089 9.02003C31.4022 8.5267 32.5156 8.28003 33.6489 8.28003C34.9156 8.28003 36.0289 8.58003 36.9889 9.18003C37.9489 9.7667 38.6822 10.5467 39.1889 11.52C39.7089 12.4934 39.9689 13.5267 39.9689 14.62C39.9689 15.8334 39.6489 16.9467 39.0089 17.96C38.3689 18.9734 37.5089 19.7734 36.4289 20.36C35.3622 20.9467 34.2022 21.24 32.9489 21.24ZM33.6089 20.74C34.3556 20.74 35.0222 20.5267 35.6089 20.1C36.2089 19.66 36.6756 19.0267 37.0089 18.2C37.3422 17.36 37.5089 16.36 37.5089 15.2C37.5089 13.9734 37.3222 12.88 36.9489 11.92C36.5756 10.9467 36.0356 10.1867 35.3289 9.64003C34.6222 9.09336 33.7956 8.82003 32.8489 8.82003C31.6356 8.82003 30.7022 9.28003 30.0489 10.2C29.3956 11.1067 29.0689 12.38 29.0689 14.02C29.0689 15.3134 29.2622 16.4734 29.6489 17.5C30.0489 18.5134 30.5889 19.3067 31.2689 19.88C31.9622 20.4534 32.7422 20.74 33.6089 20.74Z" fill="#FF6C00"/>
<path d="M91.34 8.5C91.3667 8.5 91.38 8.54 91.38 8.62C91.38 8.7 91.3667 8.74 91.34 8.74C90.8467 8.74 90.38 8.95333 89.94 9.38C89.5134 9.79333 89.16 10.3667 88.88 11.1L85.18 20.98C85.1667 21.0333 85.0934 21.06 84.96 21.06C84.8267 21.06 84.7534 21.0333 84.74 20.98L82.18 15.56L80.16 20.98C80.1467 21.0333 80.0734 21.06 79.94 21.06C79.8067 21.06 79.7334 21.0333 79.72 20.98L74.62 10.16C74.42 9.73333 74.2534 9.42667 74.12 9.24C74 9.05333 73.86 8.92667 73.7 8.86C73.5534 8.78 73.3534 8.74 73.1 8.74C73.06 8.74 73.04 8.7 73.04 8.62C73.04 8.54 73.06 8.5 73.1 8.5C73.3 8.5 73.44 8.50667 73.52 8.52C73.7867 8.54667 74.1334 8.56 74.56 8.56C75.4534 8.56 76.2067 8.54667 76.82 8.52C76.9934 8.50667 77.2067 8.5 77.46 8.5C77.5 8.5 77.52 8.54 77.52 8.62C77.52 8.7 77.5 8.74 77.46 8.74C77.1267 8.74 76.8867 8.77333 76.74 8.84C76.6067 8.90667 76.54 9.02667 76.54 9.2C76.54 9.42667 76.6934 9.86667 77 10.52L80.6 18.16L81.86 14.86L79.64 10.16C79.4134 9.68 79.2 9.32667 79 9.1C78.8 8.86 78.5867 8.74 78.36 8.74C78.32 8.74 78.3 8.7 78.3 8.62C78.3 8.54 78.32 8.5 78.36 8.5C78.4934 8.5 78.6467 8.51333 78.82 8.54C79.0067 8.55333 79.2667 8.56 79.6 8.56C80.36 8.56 80.9934 8.54667 81.5 8.52C81.6334 8.50667 81.8067 8.5 82.02 8.5C82.06 8.5 82.08 8.54 82.08 8.62C82.08 8.7 82.06 8.74 82.02 8.74C81.8334 8.74 81.6934 8.76667 81.6 8.82C81.52 8.86 81.48 8.94 81.48 9.06C81.48 9.28667 81.66 9.77333 82.02 10.52L82.9 12.38L83.4 11.04C83.6934 10.28 83.84 9.70667 83.84 9.32C83.84 8.93333 83.6734 8.74 83.34 8.74C83.3 8.74 83.28 8.7 83.28 8.62C83.28 8.54 83.3 8.5 83.34 8.5C83.4467 8.5 83.56 8.51333 83.68 8.54C83.8134 8.55333 84.1334 8.56 84.64 8.56C84.8667 8.56 85.14 8.54667 85.46 8.52L86.2 8.5C86.2267 8.5 86.24 8.54 86.24 8.62C86.24 8.7 86.2267 8.74 86.2 8.74C85.3067 8.74 84.5667 9.52667 83.98 11.1L83.24 13.08L85.64 18.14L88.22 11.24C88.38 10.8133 88.46 10.4267 88.46 10.08C88.46 9.66667 88.3534 9.34 88.14 9.1C87.94 8.86 87.6667 8.74 87.32 8.74C87.28 8.74 87.26 8.7 87.26 8.62C87.26 8.54 87.28 8.5 87.32 8.5L88.24 8.52C88.72 8.54667 89.16 8.56 89.56 8.56C89.8267 8.56 90.1334 8.54667 90.48 8.52L91.34 8.5Z" fill="white"/>
<path d="M100.459 19.68C100.486 19.68 100.513 19.7067 100.539 19.76C100.579 19.8133 100.586 19.8533 100.559 19.88C100.066 20.36 99.5659 20.7067 99.0593 20.92C98.5526 21.1333 97.9993 21.24 97.3993 21.24C96.5593 21.24 95.8326 21.0667 95.2193 20.72C94.6059 20.36 94.1393 19.8867 93.8193 19.3C93.4993 18.7 93.3393 18.0533 93.3393 17.36C93.3393 16.5867 93.5326 15.8733 93.9193 15.22C94.3059 14.5667 94.8393 14.0533 95.5193 13.68C96.2126 13.2933 96.9926 13.1 97.8593 13.1C98.6859 13.1 99.3259 13.2867 99.7793 13.66C100.233 14.0333 100.459 14.6133 100.459 15.4C100.459 15.8133 100.386 16.02 100.239 16.02L95.3793 16.04C95.3659 16.1333 95.3593 16.2867 95.3593 16.5C95.3593 17.6733 95.6259 18.5933 96.1593 19.26C96.7059 19.9267 97.4859 20.26 98.4993 20.26C98.8593 20.26 99.1659 20.22 99.4193 20.14C99.6726 20.06 100.006 19.9133 100.419 19.7L100.459 19.68ZM97.0993 13.5C96.6593 13.5 96.2926 13.6933 95.9993 14.08C95.7059 14.4533 95.5126 14.9733 95.4193 15.64L98.3193 15.6C98.3059 14.92 98.2059 14.4 98.0193 14.04C97.8326 13.68 97.5259 13.5 97.0993 13.5Z" fill="white"/>
<path d="M110.419 13.02C111.019 13.02 111.572 13.16 112.079 13.44C112.585 13.72 112.985 14.14 113.279 14.7C113.585 15.26 113.739 15.94 113.739 16.74C113.739 17.7 113.532 18.52 113.119 19.2C112.719 19.88 112.185 20.3933 111.519 20.74C110.865 21.0867 110.165 21.26 109.419 21.26C108.912 21.26 108.412 21.18 107.919 21.02C107.439 20.86 106.999 20.6267 106.599 20.32L104.779 21.14H104.739C104.685 21.14 104.652 21.1133 104.639 21.06C104.625 21.0067 104.645 20.9733 104.699 20.96C105.019 20.7733 105.259 20.52 105.419 20.2C105.592 19.8667 105.679 19.4467 105.679 18.94V9.22C105.679 8.75333 105.632 8.42 105.539 8.22C105.459 8.02 105.305 7.92 105.079 7.92C104.905 7.92 104.659 7.99333 104.339 8.14H104.319C104.265 8.14 104.225 8.10667 104.199 8.04C104.172 7.96 104.172 7.91333 104.199 7.9L107.119 6.52L107.219 6.5C107.285 6.5 107.352 6.53333 107.419 6.6C107.499 6.65333 107.539 6.70667 107.539 6.76V14.36C107.979 13.9467 108.425 13.62 108.879 13.38C109.332 13.14 109.845 13.02 110.419 13.02ZM109.899 20.86C110.472 20.86 110.912 20.5667 111.219 19.98C111.525 19.3933 111.679 18.5733 111.679 17.52C111.679 16.36 111.485 15.5 111.099 14.94C110.712 14.3667 110.172 14.08 109.479 14.08C108.852 14.08 108.205 14.3067 107.539 14.76V17.7C107.539 18.4333 107.665 19.04 107.919 19.52C108.172 19.9867 108.479 20.3267 108.839 20.54C109.199 20.7533 109.552 20.86 109.899 20.86Z" fill="white"/>
</svg>
